<mxfile host="app.diagrams.net" modified="2023-05-11T14:36:50.162Z" agent="Mozilla/5.0 (Windows NT 10.0; Win64; x64) AppleWebKit/537.36 (KHTML, like Gecko) Chrome/112.0.0.0 Safari/537.36" etag="9MxFs_Jw-mSJhiiUwm3V" version="21.1.8" type="device">
  <diagram name="第 1 页" id="XBzeOMp0P5YwjBh8SgaQ">
    <mxGraphModel dx="1179" dy="590" grid="1" gridSize="10" guides="1" tooltips="1" connect="1" arrows="1" fold="1" page="1" pageScale="1" pageWidth="827" pageHeight="1169" math="0" shadow="0">
      <root>
        <mxCell id="0" />
        <mxCell id="1" parent="0" />
        <mxCell id="4_T-1KchvU8VisekIgFU-13" style="edgeStyle=orthogonalEdgeStyle;rounded=0;orthogonalLoop=1;jettySize=auto;html=1;entryX=0;entryY=0.5;entryDx=0;entryDy=0;" edge="1" parent="1" target="4_T-1KchvU8VisekIgFU-4">
          <mxGeometry relative="1" as="geometry">
            <mxPoint x="60" y="90" as="sourcePoint" />
          </mxGeometry>
        </mxCell>
        <mxCell id="4_T-1KchvU8VisekIgFU-16" style="edgeStyle=orthogonalEdgeStyle;rounded=0;orthogonalLoop=1;jettySize=auto;html=1;entryX=0;entryY=0.5;entryDx=0;entryDy=0;" edge="1" parent="1" source="4_T-1KchvU8VisekIgFU-4" target="4_T-1KchvU8VisekIgFU-9">
          <mxGeometry relative="1" as="geometry" />
        </mxCell>
        <mxCell id="4_T-1KchvU8VisekIgFU-4" value="Read file" style="rounded=0;whiteSpace=wrap;html=1;" vertex="1" parent="1">
          <mxGeometry x="110" y="70" width="80" height="40" as="geometry" />
        </mxCell>
        <mxCell id="4_T-1KchvU8VisekIgFU-11" style="edgeStyle=orthogonalEdgeStyle;rounded=0;orthogonalLoop=1;jettySize=auto;html=1;entryX=0;entryY=0.5;entryDx=0;entryDy=0;" edge="1" parent="1" source="4_T-1KchvU8VisekIgFU-8" target="4_T-1KchvU8VisekIgFU-10">
          <mxGeometry relative="1" as="geometry" />
        </mxCell>
        <mxCell id="4_T-1KchvU8VisekIgFU-19" value="No" style="edgeLabel;html=1;align=center;verticalAlign=middle;resizable=0;points=[];" vertex="1" connectable="0" parent="4_T-1KchvU8VisekIgFU-11">
          <mxGeometry x="-0.2883" relative="1" as="geometry">
            <mxPoint x="9" as="offset" />
          </mxGeometry>
        </mxCell>
        <mxCell id="4_T-1KchvU8VisekIgFU-17" style="edgeStyle=orthogonalEdgeStyle;rounded=0;orthogonalLoop=1;jettySize=auto;html=1;entryX=0.5;entryY=0;entryDx=0;entryDy=0;" edge="1" parent="1" source="4_T-1KchvU8VisekIgFU-8" target="4_T-1KchvU8VisekIgFU-9">
          <mxGeometry relative="1" as="geometry">
            <Array as="points">
              <mxPoint x="420" y="50" />
              <mxPoint x="280" y="50" />
            </Array>
          </mxGeometry>
        </mxCell>
        <mxCell id="4_T-1KchvU8VisekIgFU-20" value="&lt;font style=&quot;font-size: 10px;&quot;&gt;Yes&lt;/font&gt;" style="edgeLabel;html=1;align=center;verticalAlign=middle;resizable=0;points=[];" vertex="1" connectable="0" parent="4_T-1KchvU8VisekIgFU-17">
          <mxGeometry x="0.0335" relative="1" as="geometry">
            <mxPoint x="3" as="offset" />
          </mxGeometry>
        </mxCell>
        <mxCell id="4_T-1KchvU8VisekIgFU-8" value="Time &amp;lt; 7080s" style="rhombus;whiteSpace=wrap;html=1;" vertex="1" parent="1">
          <mxGeometry x="370" y="65" width="100" height="50" as="geometry" />
        </mxCell>
        <mxCell id="4_T-1KchvU8VisekIgFU-12" style="edgeStyle=orthogonalEdgeStyle;rounded=0;orthogonalLoop=1;jettySize=auto;html=1;entryX=0;entryY=0.5;entryDx=0;entryDy=0;" edge="1" parent="1" source="4_T-1KchvU8VisekIgFU-9" target="4_T-1KchvU8VisekIgFU-8">
          <mxGeometry relative="1" as="geometry">
            <mxPoint x="340" y="90" as="targetPoint" />
          </mxGeometry>
        </mxCell>
        <mxCell id="4_T-1KchvU8VisekIgFU-9" value="SA" style="rounded=0;whiteSpace=wrap;html=1;fillColor=#dae8fc;strokeColor=#6c8ebf;" vertex="1" parent="1">
          <mxGeometry x="240" y="70" width="80" height="40" as="geometry" />
        </mxCell>
        <mxCell id="4_T-1KchvU8VisekIgFU-10" value="End" style="rounded=1;whiteSpace=wrap;html=1;fillColor=#f5f5f5;strokeColor=#666666;fontColor=#333333;" vertex="1" parent="1">
          <mxGeometry x="530" y="75" width="60" height="30" as="geometry" />
        </mxCell>
        <mxCell id="4_T-1KchvU8VisekIgFU-21" value="Start" style="rounded=1;whiteSpace=wrap;html=1;fillColor=#f5f5f5;strokeColor=#666666;fontColor=#333333;" vertex="1" parent="1">
          <mxGeometry y="75" width="60" height="30" as="geometry" />
        </mxCell>
      </root>
    </mxGraphModel>
  </diagram>
</mxfile>
